<svg width="20" height="20" viewBox="0 0 20 20" fill="none" xmlns="http://www.w3.org/2000/svg">
<path d="M5.6352 12.6273H7.18649V14.1786H5.6352V12.6273ZM9.51343 11.076H14.943V12.6273H9.51343V11.076ZM9.51343 7.97346H14.943V9.52475H9.51343V7.97346ZM5.6352 6.42217H7.18649V11.076H5.6352V6.42217ZM4.85955 3.31958C4.44812 3.31958 4.05354 3.48302 3.76262 3.77394C3.4717 4.06487 3.30826 4.45944 3.30826 4.87087V15.7299C3.30826 16.1414 3.4717 16.5359 3.76262 16.8269C4.05354 17.1178 4.44812 17.2812 4.85955 17.2812H15.7186C16.13 17.2812 16.5246 17.1178 16.8155 16.8269C17.1065 16.5359 17.2699 16.1414 17.2699 15.7299V4.87087C17.2699 4.45944 17.1065 4.06487 16.8155 3.77394C16.5246 3.48302 16.13 3.31958 15.7186 3.31958H4.85955Z" fill="white"/>
</svg>
