<svg width="20" height="21" viewBox="0 0 20 21" fill="none" xmlns="http://www.w3.org/2000/svg">
<path d="M16.8383 9.53162H3.85479C2.83042 9.53162 2 10.362 2 11.3864V17.8782C2 18.9025 2.83042 19.7329 3.85479 19.7329H16.8383C17.8627 19.7329 18.6931 18.9025 18.6931 17.8782V11.3864C18.6931 10.362 17.8627 9.53162 16.8383 9.53162Z" stroke="white" stroke-width="2.22574" stroke-linecap="round" stroke-linejoin="round"/>
<path d="M5.71063 9.5316V5.82203C5.71063 4.59223 6.19917 3.4128 7.06877 2.54319C7.93837 1.67359 9.1178 1.18506 10.3476 1.18506C11.5774 1.18506 12.7568 1.67359 13.6264 2.54319C14.496 3.4128 14.9846 4.59223 14.9846 5.82203V9.5316" stroke="white" stroke-width="2.22574" stroke-linecap="round" stroke-linejoin="round"/>
</svg>
