<svg width="24" height="20" viewBox="0 0 24 20" fill="none" xmlns="http://www.w3.org/2000/svg">
<path d="M15.9215 18.2555V16.4007C15.9215 15.4169 15.5306 14.4734 14.835 13.7777C14.1393 13.082 13.1957 12.6912 12.2119 12.6912H5.72013C4.73629 12.6912 3.79275 13.082 3.09707 13.7777C2.40139 14.4734 2.01056 15.4169 2.01056 16.4007V18.2555" stroke="white" stroke-width="2.22574" stroke-linecap="round" stroke-linejoin="round"/>
<path d="M8.96696 8.98165C11.0157 8.98165 12.6765 7.32082 12.6765 5.27207C12.6765 3.22333 11.0157 1.5625 8.96696 1.5625C6.91822 1.5625 5.25739 3.22333 5.25739 5.27207C5.25739 7.32082 6.91822 8.98165 8.96696 8.98165Z" stroke="white" stroke-width="2.22574" stroke-linecap="round" stroke-linejoin="round"/>
<path d="M19.6315 6.19934V11.7637" stroke="white" stroke-width="2.22574" stroke-linecap="round" stroke-linejoin="round"/>
<path d="M22.4144 8.98169H16.85" stroke="white" stroke-width="2.22574" stroke-linecap="round" stroke-linejoin="round"/>
</svg>
