<svg width="24" height="15" viewBox="0 0 24 15" fill="none" xmlns="http://www.w3.org/2000/svg">
<path opacity="0.4" d="M15.1856 7.83398C15.1856 9.69032 13.6148 11.1952 11.6772 11.1952C9.73961 11.1952 8.16887 9.69032 8.16887 7.83398C8.16887 5.97762 9.73961 4.47277 11.6772 4.47277C13.6148 4.47276 15.1856 5.97764 15.1856 7.83398ZM11.6836 0.835449C9.67739 0.844348 7.59794 1.33274 5.62945 2.2678C4.16788 2.99066 2.74349 4.01051 1.50706 5.26932C0.89979 5.9119 0.125228 6.84234 0 7.83507C0.0147992 8.695 0.937216 9.75641 1.50706 10.4008C2.66652 11.6102 4.05381 12.6016 5.62945 13.4031C7.46515 14.294 9.49702 14.8069 11.6836 14.8354C13.6916 14.8264 15.7706 14.3324 17.7369 13.4031C19.1985 12.6802 20.6236 11.6596 21.8601 10.4008C22.4673 9.75826 23.2419 8.8278 23.3671 7.83507C23.3523 6.97514 22.4299 5.91369 21.8601 5.26928C20.7006 4.05992 19.3126 3.06929 17.7369 2.26776C15.9022 1.37755 13.8653 0.868144 11.6836 0.835449ZM11.6821 2.57334C14.7221 2.57334 17.1865 4.92941 17.1865 7.83583C17.1865 10.7422 14.7221 13.0983 11.6821 13.0983C8.64204 13.0983 6.17766 10.7422 6.17766 7.83583C6.17766 4.92941 8.64204 2.57334 11.6821 2.57334Z" fill="white"/>
</svg>
