<svg width="23" height="24" viewBox="0 0 23 24" fill="none" xmlns="http://www.w3.org/2000/svg">
<path d="M9.28755 17.5725C10.9361 17.5721 12.5371 17.0203 13.8356 16.0047L17.9184 20.0875L19.2317 18.7743L15.1489 14.6915C16.1649 13.3928 16.7172 11.7914 16.7176 10.1425C16.7176 6.04575 13.3843 2.71246 9.28755 2.71246C5.19083 2.71246 1.85754 6.04575 1.85754 10.1425C1.85754 14.2392 5.19083 17.5725 9.28755 17.5725ZM9.28755 4.56996C12.3608 4.56996 14.86 7.06923 14.86 10.1425C14.86 13.2157 12.3608 15.715 9.28755 15.715C6.21431 15.715 3.71504 13.2157 3.71504 10.1425C3.71504 7.06923 6.21431 4.56996 9.28755 4.56996Z" fill="white"/>
<path d="M10.5989 8.82923C10.9509 9.18215 11.145 9.64838 11.145 10.1425H13.0025C13.0033 9.65435 12.9074 9.17091 12.7202 8.72008C12.5331 8.26926 12.2584 7.86 11.9121 7.51597C10.506 6.1117 8.06804 6.1117 6.66284 7.51597L7.97424 8.83108C8.68009 8.12709 9.89675 8.12895 10.5989 8.82923Z" fill="white"/>
</svg>
